<?xml version="1.0" encoding="UTF-8"?>
<svg xmlns="http://www.w3.org/2000/svg" xmlns:xlink="http://www.w3.org/1999/xlink" width="1131px" height="968px" viewBox="0 0 636 545" version="1.1">
<g id="surface1">
<path style=" stroke:none;fill-rule:nonzero;fill:rgb(0%,0%,0%);fill-opacity:1;" d="M 191.25 28.511719 C 191.25 28.886719 190.800781 29.261719 190.199219 29.261719 C 188.324219 29.261719 182.25 35.9375 182.25 37.964844 C 182.25 38.9375 181.949219 39.765625 181.5 39.765625 C 180.976562 39.765625 180.75 65.800781 180.75 116.292969 C 180.75 166.785156 180.523438 192.820312 180 192.820312 C 179.476562 192.820312 179.25 180.816406 179.25 158.308594 L 179.25 123.796875 L 177.375 123.796875 C 175.273438 123.796875 172.726562 125.972656 171.074219 129.199219 C 170.476562 130.398438 169.726562 131.296875 169.351562 131.296875 C 169.050781 131.296875 168.75 131.972656 168.75 132.722656 C 168.75 133.550781 168.449219 134.449219 168 134.675781 C 167.625 134.898438 167.25 135.949219 167.25 137 C 167.25 137.976562 166.949219 138.800781 166.5 138.800781 C 166.125 138.800781 165.75 139.476562 165.75 140.300781 C 165.75 141.125 165.449219 141.800781 165 141.800781 C 164.625 141.800781 164.25 142.476562 164.25 143.300781 C 164.25 144.128906 163.949219 144.804688 163.5 144.804688 C 163.125 144.804688 162.75 145.476562 162.75 146.230469 C 162.75 147.054688 162.449219 147.953125 162 148.179688 C 161.625 148.40625 161.25 150.054688 161.25 151.78125 C 161.25 154.105469 161.625 155.308594 162.75 156.058594 C 164.925781 157.632812 164.625 158.308594 161.550781 158.308594 C 158.324219 158.308594 156.824219 159.882812 156.75 163.335938 C 156.75 164.609375 156.449219 165.960938 156 166.1875 C 155.625 166.410156 155.25 167.835938 155.25 169.261719 C 155.25 170.6875 154.949219 171.8125 154.5 171.8125 C 154.125 171.8125 153.75 173.464844 153.75 175.5625 C 153.75 177.589844 153.449219 179.316406 153 179.316406 C 152.625 179.316406 152.25 181.117188 152.25 183.292969 C 152.25 185.46875 151.949219 187.570312 151.574219 188.019531 C 150.300781 189.292969 148.800781 221.179688 149.925781 222.304688 C 150.375 222.757812 150.75 226.28125 150.75 230.410156 C 150.75 234.535156 151.050781 237.988281 151.5 238.210938 C 151.949219 238.4375 152.25 240.539062 152.25 242.789062 C 152.25 245.039062 152.625 246.839844 153 246.839844 C 153.449219 246.839844 153.75 248.191406 153.75 249.839844 C 153.75 251.492188 154.125 252.84375 154.5 252.84375 C 154.949219 252.84375 155.25 253.816406 155.25 255.09375 C 155.25 256.292969 155.625 257.34375 156 257.34375 C 156.449219 257.34375 156.75 258.695312 156.75 260.34375 C 156.75 261.996094 157.125 263.347656 157.5 263.347656 C 157.949219 263.347656 158.25 264.320312 158.25 265.597656 C 158.25 266.796875 158.625 267.847656 159 267.847656 C 159.449219 267.847656 159.75 268.523438 159.75 269.273438 C 159.75 270.097656 160.125 271 160.5 271.222656 C 160.949219 271.449219 161.25 272.5 161.25 273.550781 C 161.25 274.527344 161.625 275.351562 162 275.351562 C 162.449219 275.351562 162.75 276.328125 162.75 277.601562 C 162.75 278.800781 163.125 279.851562 163.5 279.851562 C 163.949219 279.851562 164.25 280.527344 164.25 281.351562 C 164.25 282.179688 164.625 282.855469 165 282.855469 C 165.449219 282.855469 165.75 283.527344 165.75 284.355469 C 165.75 285.179688 166.125 285.855469 166.5 285.855469 C 166.949219 285.855469 167.25 286.53125 167.25 287.355469 C 167.25 288.179688 167.625 288.855469 168 288.855469 C 168.449219 288.855469 168.75 289.53125 168.75 290.355469 C 168.75 291.183594 169.125 291.855469 169.5 291.855469 C 169.949219 291.855469 170.25 292.53125 170.25 293.359375 C 170.25 294.183594 170.625 294.859375 171 294.859375 C 171.449219 294.859375 171.75 295.308594 171.75 295.832031 C 171.75 296.359375 172.425781 297.558594 173.25 298.460938 C 174.074219 299.359375 174.75 300.558594 174.75 301.234375 C 174.75 301.835938 175.125 302.359375 175.5 302.359375 C 175.949219 302.359375 176.25 302.8125 176.25 303.335938 C 176.25 303.863281 176.925781 305.0625 177.75 305.960938 C 178.574219 306.863281 179.25 307.839844 179.25 308.214844 C 179.25 308.589844 180.300781 309.9375 181.5 311.214844 C 182.773438 312.566406 183.75 313.914062 183.75 314.214844 C 183.75 314.589844 184.800781 315.941406 186 317.214844 C 187.273438 318.566406 188.25 319.917969 188.25 320.367188 C 188.25 321.417969 211.273438 344.375 212.324219 344.375 C 212.773438 344.375 214.125 345.351562 215.25 346.628906 C 216.375 347.828125 217.648438 348.878906 218.101562 348.878906 C 218.476562 348.878906 219.824219 349.851562 221.101562 351.128906 C 222.449219 352.328125 223.949219 353.378906 224.476562 353.378906 C 225 353.378906 225.898438 354.054688 226.5 354.878906 C 227.101562 355.707031 228.148438 356.378906 228.898438 356.378906 C 229.648438 356.378906 230.25 356.679688 230.25 357.132812 C 230.25 357.507812 230.851562 357.882812 231.601562 357.882812 C 232.351562 357.882812 233.398438 358.554688 234 359.382812 C 234.601562 360.207031 235.574219 360.882812 236.25 360.882812 C 236.925781 360.882812 237.898438 361.558594 238.5 362.382812 C 239.101562 363.207031 240.148438 363.882812 240.898438 363.882812 C 241.648438 363.882812 242.25 364.183594 242.25 364.632812 C 242.25 365.007812 242.699219 365.382812 243.300781 365.382812 C 243.898438 365.382812 246.300781 366.359375 248.625 367.636719 C 250.949219 368.835938 253.574219 369.886719 254.324219 369.886719 C 255.074219 369.886719 255.75 370.1875 255.75 370.636719 C 255.75 371.011719 256.425781 371.386719 257.175781 371.386719 C 258 371.386719 258.898438 371.761719 259.125 372.136719 C 259.351562 372.511719 260.398438 372.886719 261.449219 372.886719 C 262.425781 372.886719 263.25 373.1875 263.25 373.636719 C 263.25 374.011719 264.300781 374.386719 265.5 374.386719 C 266.773438 374.386719 267.75 374.6875 267.75 375.136719 C 267.75 375.511719 268.800781 375.886719 270 375.886719 C 271.273438 375.886719 272.25 376.1875 272.25 376.636719 C 272.25 377.011719 273.601562 377.386719 275.25 377.386719 C 276.898438 377.386719 278.25 377.6875 278.25 378.140625 C 278.25 378.515625 279.601562 378.890625 281.175781 378.890625 C 282.824219 378.890625 284.398438 379.1875 284.625 379.640625 C 284.851562 380.015625 286.574219 380.390625 288.449219 380.390625 C 290.25 380.390625 291.75 380.691406 291.75 381.140625 C 291.75 381.589844 293.851562 381.890625 296.550781 381.890625 C 299.25 381.890625 301.648438 382.191406 301.875 382.640625 C 302.476562 383.691406 340.273438 383.691406 340.875 382.640625 C 341.101562 382.191406 343.5 381.890625 346.125 381.890625 C 348.75 381.890625 351.148438 381.515625 351.375 381.140625 C 351.601562 380.691406 353.175781 380.390625 354.824219 380.390625 C 356.398438 380.390625 357.75 380.015625 357.75 379.640625 C 357.75 379.1875 359.101562 378.890625 360.675781 378.890625 C 362.324219 378.890625 363.898438 378.515625 364.125 378.140625 C 364.351562 377.6875 365.773438 377.386719 367.199219 377.386719 C 368.625 377.386719 369.75 377.011719 369.75 376.636719 C 369.75 376.1875 371.101562 375.886719 372.75 375.886719 C 374.398438 375.886719 375.75 375.511719 375.75 375.136719 C 375.75 374.6875 376.425781 374.386719 377.175781 374.386719 C 378 374.386719 378.898438 374.011719 379.125 373.636719 C 379.351562 373.1875 380.25 372.886719 381 372.886719 C 381.824219 372.886719 383.625 372.210938 385.125 371.386719 C 386.625 370.5625 388.574219 369.886719 389.625 369.886719 C 390.601562 369.886719 391.648438 369.511719 391.875 369.136719 C 392.101562 368.683594 393 368.386719 393.824219 368.386719 C 394.574219 368.386719 395.25 368.011719 395.25 367.636719 C 395.25 367.183594 395.925781 366.882812 396.75 366.882812 C 397.574219 366.882812 398.25 366.660156 398.25 366.285156 C 398.25 365.683594 401.851562 363.882812 403.125 363.882812 C 403.574219 363.882812 404.398438 363.207031 405 362.382812 C 405.601562 361.558594 406.648438 360.882812 407.398438 360.882812 C 408.148438 360.882812 408.75 360.507812 408.75 360.132812 C 408.75 359.683594 409.199219 359.382812 409.726562 359.382812 C 410.25 359.382812 411.449219 358.707031 412.351562 357.882812 C 413.25 357.054688 414.226562 356.378906 414.523438 356.378906 C 414.824219 356.378906 416.324219 355.332031 417.75 354.128906 C 419.175781 352.929688 420.824219 351.878906 421.351562 351.878906 C 421.800781 351.878906 422.25 351.503906 422.25 351.128906 C 422.25 350.679688 422.699219 350.378906 423.300781 350.378906 C 423.824219 350.378906 425.25 349.476562 426.449219 348.277344 C 427.648438 347.152344 429.976562 345.277344 431.625 344 C 433.199219 342.800781 438.226562 338.148438 442.648438 333.722656 C 448.648438 327.71875 450.75 325.167969 450.75 323.742188 C 450.75 322.695312 450.449219 321.867188 450 321.867188 C 449.625 321.867188 449.25 321.492188 449.25 321.117188 C 449.25 320.667969 450.449219 320.367188 451.949219 320.367188 C 454.050781 320.367188 455.25 319.765625 457.199219 317.816406 C 458.625 316.390625 459.75 314.964844 459.75 314.589844 C 459.75 314.140625 460.425781 313.238281 461.25 312.488281 C 462.226562 311.589844 462.75 310.164062 462.75 308.363281 C 462.75 305.585938 462.675781 305.511719 459.601562 304.988281 C 453.523438 304.011719 439.351562 303.710938 438.523438 304.535156 C 437.476562 305.585938 432.976562 305.585938 432.375 304.613281 C 431.773438 303.5625 386.476562 303.5625 385.875 304.613281 C 385.648438 305.0625 384.375 305.363281 383.175781 305.363281 C 380.699219 305.363281 378.75 306.863281 378.75 308.664062 C 378.75 309.339844 378.449219 309.863281 378 309.863281 C 377.625 309.863281 377.25 310.539062 377.25 311.363281 C 377.25 312.191406 377.625 312.863281 378 312.863281 C 378.449219 312.863281 378.75 313.539062 378.75 314.367188 C 378.75 315.191406 379.125 315.867188 379.5 315.867188 C 379.949219 315.867188 380.25 316.542969 380.25 317.367188 C 380.25 318.34375 380.773438 318.867188 381.75 318.867188 C 382.574219 318.867188 383.25 319.167969 383.25 319.617188 C 383.25 320.066406 380.25 320.367188 375.75 320.367188 C 371.625 320.367188 368.25 320.066406 368.25 319.765625 C 368.25 319.46875 368.925781 318.71875 369.75 318.117188 C 370.574219 317.515625 371.25 316.316406 371.25 315.339844 C 371.25 314.441406 371.625 313.464844 372 313.238281 C 372.449219 313.015625 372.75 312.113281 372.75 311.289062 C 372.75 310.539062 372.449219 309.863281 372 309.863281 C 371.625 309.863281 371.25 309.339844 371.25 308.664062 C 371.25 307.164062 369.449219 305.363281 367.949219 305.363281 C 367.351562 305.363281 366.601562 304.988281 366.375 304.613281 C 365.773438 303.636719 354.226562 303.636719 353.625 304.613281 C 353.398438 304.988281 352.199219 305.363281 350.925781 305.363281 C 349.273438 305.363281 348.75 305.738281 348.75 306.863281 C 348.75 307.6875 348.523438 308.363281 348.148438 308.363281 C 346.949219 308.363281 345.601562 311.515625 346.425781 312.339844 C 346.875 312.789062 347.25 313.765625 347.25 314.515625 C 347.25 315.265625 347.625 315.867188 348 315.867188 C 348.449219 315.867188 348.75 316.542969 348.75 317.367188 C 348.75 318.34375 349.273438 318.867188 350.25 318.867188 C 351.074219 318.867188 351.75 319.167969 351.75 319.617188 C 351.75 319.992188 350.625 320.367188 349.199219 320.367188 C 347.773438 320.367188 346.351562 319.992188 346.125 319.617188 C 345.898438 319.167969 345 318.867188 344.175781 318.867188 C 343.425781 318.867188 342.75 319.167969 342.75 319.617188 C 342.75 319.992188 341.175781 320.367188 339.300781 320.367188 C 337.273438 320.367188 336.074219 320.066406 336.375 319.617188 C 336.601562 319.167969 337.5 318.867188 338.324219 318.867188 C 339.449219 318.867188 339.75 318.34375 339.75 316.015625 C 339.75 314.441406 340.125 312.789062 340.648438 312.265625 C 341.324219 311.589844 341.324219 311.140625 340.648438 310.464844 C 340.125 309.9375 339.75 308.4375 339.75 307.085938 C 339.75 305.585938 339.148438 303.863281 338.25 302.960938 C 337.425781 302.0625 336.75 300.558594 336.75 299.585938 C 336.75 298.609375 336.300781 297.859375 335.699219 297.859375 C 335.175781 297.859375 333.75 296.957031 332.476562 295.757812 C 329.324219 292.90625 327.375 291.855469 324.824219 291.855469 C 323.550781 291.855469 322.351562 291.480469 322.125 291.105469 C 321.824219 290.65625 317.398438 290.355469 311.175781 290.355469 L 300.75 290.355469 L 300.75 279.101562 C 300.75 272.125 300.449219 267.847656 300 267.847656 C 299.625 267.847656 299.25 267.171875 299.25 266.347656 C 299.25 265.523438 298.949219 264.847656 298.5 264.847656 C 298.125 264.847656 297.75 264.246094 297.75 263.570312 C 297.75 261.695312 291.148438 255.84375 289.050781 255.84375 C 288.074219 255.84375 287.25 255.46875 287.25 255.09375 C 287.25 254.644531 286.273438 254.34375 285.074219 254.34375 C 283.800781 254.34375 282.601562 253.96875 282.375 253.59375 C 282.074219 253.144531 278.023438 252.84375 272.550781 252.84375 L 263.25 252.84375 L 263.25 240.914062 C 263.25 233.710938 262.949219 228.757812 262.5 228.457031 C 262.125 228.234375 261.75 227.035156 261.75 225.90625 C 261.75 224.78125 261.074219 223.132812 260.25 222.230469 C 259.425781 221.332031 258.75 220.355469 258.75 220.054688 C 258.75 218.855469 255.148438 215.328125 253.949219 215.328125 C 253.273438 215.328125 252.75 214.953125 252.75 214.578125 C 252.75 214.128906 252.074219 213.828125 251.25 213.828125 C 250.425781 213.828125 249.75 213.453125 249.75 213.078125 C 249.75 212.628906 248.773438 212.328125 247.5 212.328125 C 246.300781 212.328125 245.25 211.953125 245.25 211.578125 C 245.25 211.128906 242.25 210.828125 237.75 210.828125 L 230.25 210.828125 L 230.25 203.324219 L 234.75 203.324219 C 237.226562 203.324219 239.25 203.023438 239.25 202.574219 C 239.25 202.125 240.375 201.824219 241.726562 201.824219 C 243.148438 201.824219 244.875 201.222656 245.851562 200.324219 C 246.75 199.5 247.726562 198.824219 248.023438 198.824219 C 249.074219 198.824219 252.375 195.523438 253.425781 193.347656 C 254.023438 192.21875 254.773438 191.320312 255.148438 191.320312 C 255.449219 191.320312 255.75 190.871094 255.75 190.34375 C 255.75 189.894531 256.425781 188.621094 257.25 187.570312 C 258.074219 186.519531 258.75 184.644531 258.75 183.292969 C 258.75 182.015625 259.125 180.667969 259.5 180.441406 C 259.949219 180.140625 260.25 169.9375 260.25 152.304688 C 260.25 134.675781 259.949219 124.46875 259.5 124.171875 C 259.125 123.945312 258.75 123.046875 258.75 122.21875 C 258.75 121.46875 258.449219 120.792969 258 120.792969 C 257.625 120.792969 257.25 120.269531 257.25 119.59375 C 257.25 118.09375 255.449219 116.292969 253.949219 116.292969 C 253.351562 116.292969 252.601562 115.917969 252.375 115.542969 C 252.148438 115.09375 249.75 114.792969 247.050781 114.792969 C 244.351562 114.792969 242.25 115.09375 242.25 115.542969 C 242.25 115.917969 241.574219 116.292969 240.824219 116.292969 C 239.925781 116.292969 238.949219 117.191406 238.351562 118.542969 C 237.824219 119.742188 237.148438 120.792969 236.851562 120.792969 C 236.476562 120.792969 236.25 121.46875 236.25 122.21875 C 236.25 123.046875 235.949219 123.945312 235.5 124.171875 C 235.050781 124.46875 234.75 134.222656 234.75 150.957031 C 234.75 175.113281 234.675781 177.363281 233.476562 178.265625 C 230.398438 180.589844 230.25 179.992188 230.25 164.011719 C 230.25 154.558594 229.949219 148.480469 229.5 148.179688 C 229.125 147.953125 228.75 147.054688 228.75 146.230469 C 228.75 145.476562 228.449219 144.804688 228 144.804688 C 227.625 144.804688 227.25 144.203125 227.25 143.453125 C 227.25 142.703125 226.273438 141.800781 224.851562 141.203125 C 223.5 140.675781 221.773438 139.851562 221.101562 139.476562 C 219.226562 138.5 215.398438 138.652344 215.023438 139.703125 C 214.875 140.226562 214.425781 140.375 214.050781 140.078125 C 213.675781 139.777344 213.824219 139.25 214.351562 138.875 C 215.023438 138.5 215.324219 130.699219 215.699219 109.164062 C 216.449219 59.195312 216.523438 43.441406 215.851562 43.066406 C 215.550781 42.839844 215.25 41.714844 215.25 40.441406 C 215.25 39.238281 214.949219 38.265625 214.5 38.265625 C 214.125 38.265625 213.75 37.738281 213.75 37.0625 C 213.75 35.488281 207.449219 29.261719 205.875 29.261719 C 205.273438 29.261719 204.75 28.886719 204.75 28.511719 C 204.75 28.058594 201.976562 27.761719 198 27.761719 C 194.023438 27.761719 191.25 28.058594 191.25 28.511719 Z M 192.75 144.429688 C 192.75 166.636719 192.523438 177.816406 192 177.816406 C 191.476562 177.816406 191.25 166.785156 191.25 144.953125 C 191.25 116.144531 191.398438 111.039062 192.449219 111.039062 C 192.601562 111.039062 192.675781 126.046875 192.75 144.429688 Z M 206.25 200.324219 C 206.25 234.835938 206.023438 252.84375 205.5 252.84375 C 204.976562 252.84375 204.75 234.835938 204.75 200.324219 C 204.75 165.8125 204.976562 147.804688 205.5 147.804688 C 206.023438 147.804688 206.25 165.8125 206.25 200.324219 Z M 206.25 200.324219 "/>
<path style=" stroke:none;fill-rule:nonzero;fill:rgb(0%,0%,0%);fill-opacity:1;" d="M 304.125 39.015625 C 303.898438 39.390625 301.199219 39.765625 298.125 39.765625 C 295.050781 39.765625 292.351562 40.066406 292.125 40.515625 C 291.898438 40.890625 290.023438 41.265625 287.925781 41.265625 C 285.898438 41.265625 284.25 41.566406 284.25 42.015625 C 284.25 42.390625 283.125 42.765625 281.699219 42.765625 C 280.273438 42.765625 278.851562 43.066406 278.625 43.515625 C 278.398438 43.890625 277.199219 44.265625 275.925781 44.265625 C 274.726562 44.265625 273.75 44.566406 273.75 45.015625 C 273.75 45.390625 272.773438 45.765625 271.5 45.765625 C 270.300781 45.765625 269.25 46.066406 269.25 46.515625 C 269.25 46.890625 268.273438 47.265625 267 47.265625 C 265.800781 47.265625 264.75 47.566406 264.75 48.019531 C 264.75 48.394531 264.074219 48.769531 263.25 48.769531 C 262.425781 48.769531 261.75 49.066406 261.75 49.519531 C 261.75 49.894531 260.925781 50.269531 259.949219 50.269531 C 258.898438 50.269531 257.851562 50.570312 257.625 51.019531 C 257.398438 51.394531 256.5 51.769531 255.675781 51.769531 C 254.925781 51.769531 254.25 52.070312 254.25 52.519531 C 254.25 52.894531 253.574219 53.269531 252.75 53.269531 C 251.925781 53.269531 251.25 53.570312 251.25 54.019531 C 251.25 54.394531 250.574219 54.769531 249.75 54.769531 C 248.925781 54.769531 248.25 55.070312 248.25 55.519531 C 248.25 55.894531 247.574219 56.269531 246.75 56.269531 C 245.925781 56.269531 245.25 56.496094 245.25 56.871094 C 245.25 57.171875 244.199219 57.847656 242.925781 58.445312 C 240.898438 59.347656 240.675781 59.722656 240.898438 62.199219 C 241.125 64.75 241.273438 64.898438 244.050781 65.125 C 245.625 65.273438 247.273438 65.050781 247.726562 64.597656 C 248.175781 64.148438 249.449219 63.773438 250.574219 63.773438 C 251.699219 63.773438 252.898438 63.398438 253.125 63.023438 C 253.351562 62.574219 254.398438 62.273438 255.449219 62.273438 C 256.425781 62.273438 257.25 61.898438 257.25 61.523438 C 257.25 61.074219 258.300781 60.773438 259.5 60.773438 C 260.773438 60.773438 261.75 60.398438 261.75 60.023438 C 261.75 59.570312 262.574219 59.273438 263.550781 59.273438 C 264.601562 59.273438 265.648438 58.898438 265.875 58.519531 C 266.101562 58.070312 267.148438 57.769531 268.125 57.769531 C 269.101562 57.769531 270.148438 57.394531 270.375 57.019531 C 270.601562 56.570312 271.800781 56.269531 273.074219 56.269531 C 274.273438 56.269531 275.25 55.894531 275.25 55.519531 C 275.25 55.070312 276.75 54.769531 278.550781 54.769531 C 280.425781 54.769531 282.148438 54.394531 282.375 54.019531 C 282.601562 53.570312 284.324219 53.269531 286.125 53.269531 C 287.925781 53.269531 289.648438 52.894531 289.875 52.519531 C 290.101562 52.070312 292.425781 51.769531 295.050781 51.769531 C 297.601562 51.769531 300 51.46875 300.375 51.09375 C 300.824219 50.71875 305.324219 50.195312 310.5 49.96875 C 315.675781 49.816406 321.375 49.367188 323.101562 49.066406 C 325.199219 48.769531 326.699219 48.917969 327.226562 49.441406 C 327.75 49.96875 330.976562 50.269531 335.324219 50.269531 C 339.449219 50.269531 342.898438 50.570312 343.125 51.019531 C 343.351562 51.394531 345.898438 51.769531 348.75 51.769531 C 351.601562 51.769531 354.148438 52.070312 354.375 52.519531 C 354.601562 52.894531 356.175781 53.269531 357.75 53.269531 C 359.324219 53.269531 360.898438 53.570312 361.125 54.019531 C 361.351562 54.394531 363.074219 54.769531 364.949219 54.769531 C 366.75 54.769531 368.25 55.070312 368.25 55.519531 C 368.25 55.894531 369.601562 56.269531 371.25 56.269531 C 372.898438 56.269531 374.25 56.570312 374.25 57.019531 C 374.25 57.394531 375.300781 57.769531 376.5 57.769531 C 377.773438 57.769531 378.75 58.070312 378.75 58.519531 C 378.75 58.898438 379.425781 59.273438 380.175781 59.273438 C 381 59.273438 381.898438 59.570312 382.125 60.023438 C 382.351562 60.398438 384.75 60.773438 387.449219 60.773438 C 392.25 60.773438 392.25 60.773438 392.25 58.671875 C 392.25 56.421875 389.398438 53.269531 387.375 53.269531 C 386.773438 53.269531 386.25 53.042969 386.25 52.667969 C 386.25 52.070312 382.574219 50.269531 381.226562 50.269531 C 380.699219 50.269531 380.25 49.894531 380.25 49.519531 C 380.25 49.066406 379.574219 48.769531 378.75 48.769531 C 377.925781 48.769531 377.25 48.394531 377.25 48.019531 C 377.25 47.566406 376.125 47.265625 374.699219 47.265625 C 373.273438 47.265625 371.851562 46.890625 371.625 46.515625 C 371.398438 46.066406 370.5 45.765625 369.675781 45.765625 C 368.925781 45.765625 368.25 45.390625 368.25 45.015625 C 368.25 44.566406 367.273438 44.265625 366.074219 44.265625 C 364.800781 44.265625 363.601562 43.890625 363.375 43.515625 C 363.148438 43.066406 361.949219 42.765625 360.75 42.765625 C 359.550781 42.765625 358.351562 42.390625 358.125 42.015625 C 357.898438 41.566406 356.023438 41.265625 353.925781 41.265625 C 351.898438 41.265625 350.25 40.890625 350.25 40.515625 C 350.25 40.066406 348 39.765625 345.074219 39.765625 C 342.148438 39.765625 339.601562 39.390625 339.375 39.015625 C 339.074219 38.5625 332.398438 38.265625 321.75 38.265625 C 311.101562 38.265625 304.425781 38.5625 304.125 39.015625 Z M 304.125 39.015625 "/>
<path style=" stroke:none;fill-rule:nonzero;fill:rgb(0%,0%,0%);fill-opacity:1;" d="M 414.226562 72.402344 C 413.699219 73 413.25 73.902344 413.25 74.503906 C 413.25 75.027344 412.949219 75.777344 412.574219 76.152344 C 411.523438 77.351562 410.851562 82.832031 410.476562 94.460938 C 410.324219 101.4375 410.476562 105.5625 410.925781 106.015625 C 411.375 106.464844 411.75 108.113281 411.75 109.613281 C 411.75 111.191406 412.125 112.691406 412.5 112.917969 C 412.949219 113.140625 413.25 114.191406 413.25 115.167969 C 413.25 116.144531 413.625 117.191406 414 117.417969 C 414.449219 117.644531 414.75 118.542969 414.75 119.367188 C 414.75 120.117188 415.125 120.792969 415.5 120.792969 C 415.949219 120.792969 416.25 121.46875 416.25 122.292969 C 416.25 123.121094 416.625 123.796875 417 123.796875 C 417.449219 123.796875 417.75 124.46875 417.75 125.296875 C 417.75 126.121094 418.125 126.796875 418.5 126.796875 C 418.949219 126.796875 419.25 127.472656 419.25 128.296875 C 419.25 129.121094 419.625 129.796875 420 129.796875 C 420.449219 129.796875 420.75 130.246094 420.75 130.773438 C 420.75 133.175781 433.351562 145.929688 438.226562 148.480469 C 439.351562 149.078125 440.25 149.828125 440.25 150.207031 C 440.25 150.503906 440.925781 150.804688 441.75 150.804688 C 442.574219 150.804688 443.25 151.105469 443.25 151.554688 C 443.25 151.929688 443.925781 152.304688 444.75 152.304688 C 445.574219 152.304688 446.25 152.605469 446.25 153.054688 C 446.25 153.429688 446.925781 153.804688 447.75 153.804688 C 448.574219 153.804688 449.25 154.105469 449.25 154.558594 C 449.25 154.933594 450.300781 155.308594 451.5 155.308594 C 452.773438 155.308594 453.75 155.605469 453.75 156.058594 C 453.75 156.433594 454.726562 156.808594 455.925781 156.808594 C 457.199219 156.808594 458.398438 157.109375 458.625 157.558594 C 458.851562 157.933594 461.101562 158.308594 463.5 158.308594 C 465.898438 158.308594 468.148438 158.609375 468.375 159.058594 C 469.050781 160.183594 479.398438 159.957031 480.976562 158.757812 C 481.949219 158.007812 482.25 156.65625 482.25 153.507812 C 482.25 151.179688 481.949219 149.304688 481.5 149.304688 C 481.125 149.304688 480.75 148.480469 480.75 147.503906 C 480.75 146.453125 480.449219 145.402344 480 145.179688 C 479.625 144.953125 479.25 144.054688 479.25 143.226562 C 479.25 142.476562 478.949219 141.800781 478.5 141.800781 C 478.125 141.800781 477.75 141.125 477.75 140.300781 C 477.75 139.476562 477.449219 138.800781 477 138.800781 C 476.625 138.800781 476.25 138.125 476.25 137.300781 C 476.25 136.476562 475.949219 135.800781 475.5 135.800781 C 475.125 135.800781 474.75 135.125 474.75 134.300781 C 474.75 133.472656 474.449219 132.796875 474 132.796875 C 473.625 132.796875 473.25 132.125 473.25 131.296875 C 473.25 130.472656 472.949219 129.796875 472.5 129.796875 C 472.125 129.796875 471.75 129.347656 471.75 128.824219 C 471.75 128.296875 471.074219 127.097656 470.25 126.195312 C 469.425781 125.296875 468.75 124.09375 468.75 123.421875 C 468.75 122.820312 468.449219 122.292969 468 122.292969 C 467.625 122.292969 467.25 121.84375 467.25 121.320312 C 467.25 120.792969 466.574219 119.59375 465.75 118.695312 C 464.925781 117.792969 464.25 116.816406 464.25 116.441406 C 464.25 116.066406 463.273438 114.71875 462 113.441406 C 460.800781 112.089844 459.75 110.664062 459.75 110.289062 C 459.75 109.839844 458.925781 108.640625 457.949219 107.664062 C 456.898438 106.613281 455.175781 104.589844 453.976562 103.011719 C 451.425781 99.5625 430.726562 78.777344 429.898438 78.777344 C 429.601562 78.777344 427.800781 77.429688 426 75.777344 C 424.199219 74.128906 422.25 72.777344 421.726562 72.777344 C 421.199219 72.777344 420.75 72.402344 420.75 72.027344 C 420.75 70.902344 415.273438 71.199219 414.226562 72.402344 Z M 414.226562 72.402344 "/>
<path style=" stroke:none;fill-rule:nonzero;fill:rgb(0%,0%,0%);fill-opacity:1;" d="M 297.75 78.027344 C 297.75 78.402344 296.925781 78.777344 295.949219 78.777344 C 294.824219 78.777344 292.800781 80.128906 290.324219 82.53125 L 286.5 86.28125 L 280.574219 86.28125 C 277.273438 86.28125 274.351562 86.582031 274.125 87.03125 C 273.898438 87.40625 272.699219 87.78125 271.425781 87.78125 C 270.226562 87.78125 269.25 88.082031 269.25 88.53125 C 269.25 88.90625 268.726562 89.28125 268.050781 89.28125 C 266.398438 89.28125 264.75 91.160156 264.75 93.035156 C 264.75 96.035156 266.476562 96.785156 272.925781 96.785156 C 276.226562 96.785156 279.148438 97.085938 279.375 97.535156 C 279.601562 97.910156 280.800781 98.285156 282 98.285156 C 283.199219 98.285156 284.398438 98.585938 284.625 99.035156 C 284.851562 99.410156 286.425781 99.785156 288.074219 99.785156 C 290.25 99.785156 291.601562 99.261719 292.875 97.910156 C 293.925781 96.9375 294.75 95.734375 294.75 95.285156 C 294.75 93.335938 304.800781 84.78125 307.050781 84.78125 C 307.726562 84.78125 308.25 84.179688 308.25 83.429688 C 308.25 82.679688 308.625 81.703125 309.074219 81.253906 C 309.675781 80.65625 309.601562 79.980469 308.851562 78.855469 C 308.023438 77.503906 307.199219 77.277344 302.851562 77.277344 C 299.925781 77.277344 297.75 77.578125 297.75 78.027344 Z M 297.75 78.027344 "/>
<path style=" stroke:none;fill-rule:nonzero;fill:rgb(0%,0%,0%);fill-opacity:1;" d="M 351.148438 80.355469 C 350.398438 81.480469 350.324219 82.15625 350.925781 82.753906 C 351.375 83.207031 351.75 84.480469 351.75 85.53125 C 351.75 86.582031 352.425781 87.933594 353.25 88.53125 C 354.074219 89.132812 354.75 90.183594 354.75 90.933594 C 354.75 91.683594 355.125 92.285156 355.5 92.285156 C 355.949219 92.285156 356.25 92.960938 356.25 93.785156 C 356.25 94.609375 356.625 95.285156 357 95.285156 C 357.449219 95.285156 357.75 96.335938 357.75 97.535156 C 357.75 98.8125 358.050781 100.386719 358.425781 101.136719 C 358.800781 101.8125 359.324219 103.011719 359.550781 103.6875 C 360.226562 105.863281 364.726562 107.515625 367.800781 106.613281 C 369.375 106.238281 370.351562 106.164062 370.125 106.613281 C 369.824219 106.988281 370.800781 107.289062 372.226562 107.289062 C 374.625 107.289062 380.773438 109.839844 381.824219 111.265625 C 382.050781 111.640625 383.773438 111.792969 385.574219 111.640625 C 388.574219 111.414062 388.875 111.191406 389.101562 109.316406 C 389.25 108.191406 389.023438 107.289062 388.574219 107.289062 C 388.125 107.289062 387.75 106.765625 387.75 106.164062 C 387.75 105.488281 387.074219 104.289062 386.25 103.386719 C 385.425781 102.488281 384.75 101.363281 384.75 100.835938 C 384.75 100.3125 383.773438 99.488281 382.5 98.886719 C 381.300781 98.359375 380.25 97.6875 380.25 97.386719 C 380.25 97.011719 379.425781 96.785156 378.449219 96.785156 C 377.398438 96.785156 376.351562 96.410156 376.125 96.035156 C 375.898438 95.585938 374.925781 95.285156 373.949219 95.285156 C 371.398438 95.285156 368.25 93.558594 368.25 92.058594 C 368.25 91.382812 367.949219 90.785156 367.5 90.785156 C 367.125 90.785156 366.75 90.257812 366.75 89.507812 C 366.75 88.832031 364.5 86.132812 361.800781 83.503906 C 357.824219 79.753906 356.324219 78.777344 354.449219 78.777344 C 352.875 78.777344 351.75 79.304688 351.148438 80.355469 Z M 351.148438 80.355469 "/>
<path style=" stroke:none;fill-rule:nonzero;fill:rgb(0%,0%,0%);fill-opacity:1;" d="M 317.25 126.046875 C 317.25 126.421875 316.273438 126.796875 315 126.796875 C 313.800781 126.796875 312.75 127.097656 312.75 127.546875 C 312.75 127.921875 312.074219 128.296875 311.25 128.296875 C 310.273438 128.296875 309.75 128.824219 309.75 129.796875 C 309.75 130.621094 309.449219 131.296875 309 131.296875 C 306.300781 131.296875 310.800781 137.226562 315.226562 139.476562 C 316.351562 140.078125 317.25 140.828125 317.25 141.203125 C 317.25 141.5 317.699219 141.800781 318.226562 141.800781 C 318.75 141.800781 319.875 142.402344 320.699219 143.078125 C 321.449219 143.828125 323.023438 144.878906 324.226562 145.476562 C 325.351562 146.078125 326.25 146.828125 326.25 147.203125 C 326.25 147.503906 326.699219 147.804688 327.226562 147.804688 C 327.75 147.804688 328.875 148.40625 329.699219 149.078125 C 330.523438 149.828125 331.949219 150.878906 332.851562 151.332031 C 333.75 151.855469 335.25 152.757812 336.148438 153.207031 C 337.050781 153.730469 338.773438 155.082031 339.976562 156.207031 C 341.25 157.40625 342.675781 158.308594 343.199219 158.308594 C 343.800781 158.308594 344.25 158.609375 344.25 159.058594 C 344.25 159.433594 344.699219 159.808594 345.226562 159.808594 C 345.75 159.808594 346.875 160.410156 347.699219 161.160156 C 348.449219 161.910156 350.476562 163.109375 352.125 163.933594 C 354.75 165.210938 354.898438 165.4375 353.476562 165.660156 C 352.5 165.8125 351.75 166.261719 351.75 166.636719 C 351.75 167.011719 351.074219 167.3125 350.25 167.3125 C 349.425781 167.3125 348.75 167.613281 348.75 168.0625 C 348.75 168.4375 348.074219 168.8125 347.25 168.8125 C 346.425781 168.8125 345.75 169.113281 345.75 169.5625 C 345.75 169.9375 345.074219 170.3125 344.25 170.3125 C 343.425781 170.3125 342.75 170.613281 342.75 171.0625 C 342.75 171.4375 342.074219 171.8125 341.25 171.8125 C 340.425781 171.8125 339.75 172.113281 339.75 172.5625 C 339.75 172.9375 339.074219 173.3125 338.25 173.3125 C 337.425781 173.3125 336.75 173.613281 336.75 174.0625 C 336.75 174.4375 336.074219 174.8125 335.25 174.8125 C 334.425781 174.8125 333.75 175.113281 333.75 175.5625 C 333.75 175.941406 333.074219 176.316406 332.25 176.316406 C 331.425781 176.316406 330.75 176.613281 330.75 177.066406 C 330.75 177.441406 330.074219 177.816406 329.25 177.816406 C 328.425781 177.816406 327.75 178.117188 327.75 178.566406 C 327.75 178.941406 327.074219 179.316406 326.25 179.316406 C 325.425781 179.316406 324.75 179.617188 324.75 180.066406 C 324.75 180.441406 324.074219 180.816406 323.25 180.816406 C 322.425781 180.816406 321.75 181.117188 321.75 181.566406 C 321.75 181.941406 321.074219 182.316406 320.25 182.316406 C 319.425781 182.316406 318.75 182.617188 318.75 183.066406 C 318.75 183.441406 318.074219 183.816406 317.25 183.816406 C 316.425781 183.816406 315.75 184.117188 315.75 184.566406 C 315.75 184.941406 315.074219 185.316406 314.25 185.316406 C 313.425781 185.316406 312.75 185.617188 312.75 186.066406 C 312.75 186.445312 311.398438 186.820312 309.824219 186.820312 C 308.175781 186.820312 306.601562 186.445312 306.375 186.066406 C 306.148438 185.617188 305.101562 185.316406 304.050781 185.316406 C 303.074219 185.316406 302.25 184.941406 302.25 184.566406 C 302.25 184.117188 301.574219 183.816406 300.75 183.816406 C 299.925781 183.816406 299.25 183.441406 299.25 183.066406 C 299.25 182.617188 298.574219 182.316406 297.75 182.316406 C 296.925781 182.316406 296.25 181.941406 296.25 181.566406 C 296.25 181.117188 295.273438 180.816406 294.148438 180.816406 C 293.023438 180.816406 291.601562 180.367188 291.148438 179.917969 C 290.398438 179.164062 289.875 179.164062 288.75 179.917969 C 287.925781 180.367188 286.574219 180.816406 285.75 180.816406 C 284.925781 180.816406 284.25 181.117188 284.25 181.566406 C 284.25 181.941406 283.648438 182.316406 282.898438 182.316406 C 280.800781 182.316406 279.75 183.816406 279.75 186.742188 C 279.75 188.996094 280.351562 189.96875 283.273438 192.59375 C 285.226562 194.394531 287.101562 195.820312 287.398438 195.820312 C 288.601562 195.820312 293.550781 201.375 292.648438 201.675781 C 292.125 201.824219 291.75 202.574219 291.75 203.398438 C 291.75 204.148438 291.449219 204.824219 291 204.824219 C 289.875 204.824219 290.101562 210.078125 291.300781 211.277344 C 291.898438 211.878906 293.550781 212.328125 294.976562 212.328125 C 297.675781 212.328125 300 214.054688 298.5 214.953125 C 297.300781 215.703125 297.523438 230.933594 298.800781 232.285156 C 300.074219 233.484375 303.75 233.710938 303.75 232.585938 C 303.75 232.136719 304.5 231.835938 305.476562 231.835938 C 307.5 231.835938 311.25 228.757812 311.25 227.035156 C 311.25 226.359375 311.625 225.832031 312 225.832031 C 312.449219 225.832031 312.75 225.15625 312.75 224.332031 C 312.75 223.507812 313.125 222.832031 313.5 222.832031 C 313.949219 222.832031 314.25 222.15625 314.25 221.332031 C 314.25 220.507812 314.625 219.832031 315 219.832031 C 315.449219 219.832031 315.75 219.304688 315.75 218.707031 C 315.75 216.003906 320.25 210.828125 322.648438 210.828125 C 323.324219 210.828125 324.148438 210.453125 324.375 210.078125 C 324.601562 209.625 325.5 209.328125 326.324219 209.328125 C 327.074219 209.328125 327.75 208.953125 327.75 208.578125 C 327.75 208.125 328.425781 207.828125 329.25 207.828125 C 330.074219 207.828125 330.75 207.449219 330.75 207.074219 C 330.75 206.625 331.425781 206.324219 332.25 206.324219 C 333.074219 206.324219 333.75 205.949219 333.75 205.574219 C 333.75 205.125 334.425781 204.824219 335.25 204.824219 C 336.074219 204.824219 336.75 204.449219 336.75 204.074219 C 336.75 203.625 337.800781 203.324219 339 203.324219 C 340.273438 203.324219 341.25 202.949219 341.25 202.574219 C 341.25 202.125 342.074219 201.824219 343.125 201.824219 C 344.175781 201.824219 345.75 201.148438 346.648438 200.324219 C 347.550781 199.5 348.898438 198.824219 349.574219 198.824219 C 350.324219 198.824219 351.148438 198.449219 351.375 198.074219 C 351.601562 197.621094 352.5 197.324219 353.324219 197.324219 C 354.074219 197.324219 354.75 196.949219 354.75 196.570312 C 354.75 196.121094 355.425781 195.820312 356.25 195.820312 C 357.824219 195.820312 358.273438 196.949219 357 197.699219 C 356.625 197.921875 356.25 198.972656 356.25 200.023438 C 356.25 201 355.949219 201.824219 355.5 201.824219 C 355.125 201.824219 354.75 202.648438 354.75 203.625 C 354.75 204.675781 354.449219 205.726562 354 205.949219 C 353.625 206.175781 353.25 207.074219 353.25 207.902344 C 353.25 208.652344 352.949219 209.328125 352.5 209.328125 C 352.125 209.328125 351.75 210.675781 351.75 212.328125 C 351.75 213.980469 351.449219 215.328125 351 215.328125 C 350.625 215.328125 350.25 216.15625 350.25 217.128906 C 350.25 218.179688 349.949219 219.230469 349.5 219.457031 C 349.125 219.679688 348.75 220.582031 348.75 221.40625 C 348.75 222.15625 348.449219 222.832031 348 222.832031 C 347.625 222.832031 347.25 223.808594 347.25 225.082031 C 347.25 226.28125 346.949219 227.332031 346.5 227.332031 C 346.125 227.332031 345.75 228.007812 345.75 228.832031 C 345.75 229.660156 345.449219 230.335938 345 230.335938 C 344.625 230.335938 344.25 231.011719 344.25 231.761719 C 344.25 232.585938 343.949219 233.484375 343.5 233.710938 C 343.125 233.9375 342.75 235.363281 342.75 236.785156 C 342.75 238.210938 342.449219 239.335938 342 239.335938 C 341.625 239.335938 341.25 240.3125 341.25 241.4375 C 341.25 242.5625 340.875 243.914062 340.425781 244.363281 C 339.824219 244.964844 339.824219 245.789062 340.574219 247.515625 C 341.398438 249.390625 342.074219 249.839844 344.023438 249.839844 C 345.300781 249.839844 346.648438 249.464844 346.875 249.089844 C 347.101562 248.640625 348.148438 248.339844 349.125 248.339844 C 350.101562 248.339844 351.148438 247.964844 351.375 247.589844 C 351.601562 247.140625 352.351562 246.839844 353.023438 246.839844 C 354.375 246.839844 359.25 241.738281 359.25 240.3125 C 359.25 239.789062 359.625 239.335938 360 239.335938 C 360.449219 239.335938 360.75 238.664062 360.75 237.835938 C 360.75 237.011719 361.125 236.335938 361.5 236.335938 C 361.949219 236.335938 362.25 235.8125 362.25 235.210938 C 362.25 234.535156 362.925781 233.335938 363.75 232.433594 C 364.574219 231.535156 365.25 230.183594 365.25 229.433594 C 365.25 228.683594 365.925781 227.332031 366.75 226.433594 C 367.574219 225.53125 368.25 224.332031 368.25 223.808594 C 368.25 223.28125 368.625 222.832031 369 222.832031 C 369.449219 222.832031 369.75 222.304688 369.75 221.632812 C 369.75 219.980469 371.625 218.332031 373.425781 218.332031 C 374.25 218.332031 375.148438 217.953125 375.375 217.578125 C 375.601562 217.128906 376.800781 216.828125 378.074219 216.828125 C 379.273438 216.828125 380.25 216.453125 380.25 216.078125 C 380.25 215.628906 380.773438 215.328125 381.449219 215.328125 C 383.476562 215.328125 384.75 213.304688 384.75 210.078125 C 384.75 206.925781 383.476562 204.824219 381.523438 204.824219 C 378.675781 204.824219 380.550781 201.898438 383.476562 201.824219 C 384.148438 201.824219 384.75 201.449219 384.75 201.074219 C 384.75 200.625 385.425781 200.324219 386.175781 200.324219 C 387 200.324219 389.023438 199.574219 390.675781 198.671875 C 393.523438 197.171875 393.75 196.796875 393.75 193.871094 C 393.75 191.320312 393.300781 190.269531 391.5 188.542969 C 390.300781 187.417969 389.25 185.992188 389.25 185.394531 C 389.25 184.191406 394.425781 179.316406 395.773438 179.316406 C 396.300781 179.316406 396.75 178.941406 396.75 178.566406 C 396.75 178.117188 397.425781 177.816406 398.25 177.816406 C 399.074219 177.816406 399.75 177.441406 399.75 177.066406 C 399.75 176.613281 400.425781 176.316406 401.25 176.316406 C 402.074219 176.316406 402.75 175.941406 402.75 175.5625 C 402.75 175.113281 403.199219 174.8125 403.726562 174.8125 C 404.25 174.8125 405.449219 174.140625 406.351562 173.3125 C 407.25 172.488281 408.300781 171.8125 408.75 171.8125 C 409.949219 171.8125 414.523438 167.011719 416.25 163.933594 C 417.824219 161.085938 418.351562 153.507812 417 152.679688 C 416.625 152.457031 416.25 151.707031 416.25 151.105469 C 416.25 149.90625 414.523438 147.804688 413.476562 147.804688 C 413.175781 147.804688 412.050781 147.128906 411 146.304688 C 409.574219 145.179688 407.925781 144.804688 403.726562 144.804688 C 400.574219 144.804688 398.25 145.101562 398.25 145.554688 C 398.25 145.929688 397.425781 146.304688 396.375 146.304688 C 395.324219 146.304688 393.898438 146.605469 393.148438 146.980469 C 387 150.054688 385.050781 150.804688 382.800781 150.804688 C 381.375 150.804688 380.25 150.429688 380.25 150.054688 C 380.25 149.605469 379.574219 149.304688 378.75 149.304688 C 377.925781 149.304688 377.25 149.003906 377.25 148.628906 C 377.25 148.253906 376.351562 147.804688 375.226562 147.652344 C 373.5 147.503906 373.050781 146.980469 372.898438 145.179688 C 372.75 143.902344 372.300781 142.628906 371.925781 142.175781 C 371.550781 141.800781 371.25 141.050781 371.25 140.453125 C 371.25 138.5 369.148438 137.300781 365.699219 137.300781 C 363.824219 137.300781 362.25 137.601562 362.25 138.050781 C 362.25 138.425781 361.574219 138.800781 360.75 138.800781 C 359.925781 138.800781 359.25 139.101562 359.25 139.550781 C 359.25 139.925781 358.574219 140.300781 357.75 140.300781 C 356.023438 140.300781 355.949219 140.078125 357.148438 138.050781 C 357.898438 136.851562 357.898438 136.25 357.148438 135.050781 C 356.699219 134.222656 356.25 133.175781 356.25 132.722656 C 356.25 130.398438 348.824219 128.597656 347.625 130.546875 C 347.398438 130.921875 346.199219 131.296875 344.925781 131.296875 C 343.726562 131.296875 342.75 131.597656 342.75 132.046875 C 342.75 132.421875 342.074219 132.796875 341.25 132.796875 C 340.425781 132.796875 339.75 132.421875 339.75 132.046875 C 339.75 131.597656 339.074219 131.296875 338.25 131.296875 C 337.425781 131.296875 336.75 130.921875 336.75 130.546875 C 336.75 130.097656 336.074219 129.796875 335.25 129.796875 C 334.425781 129.796875 333.75 129.421875 333.75 129.046875 C 333.75 128.597656 333.074219 128.296875 332.324219 128.296875 C 331.5 128.296875 330.601562 127.921875 330.375 127.546875 C 330.148438 127.097656 329.101562 126.796875 328.050781 126.796875 C 327.074219 126.796875 326.25 126.421875 326.25 126.046875 C 326.25 125.597656 324.226562 125.296875 321.75 125.296875 C 319.273438 125.296875 317.25 125.597656 317.25 126.046875 Z M 317.25 126.046875 "/>
<path style=" stroke:none;fill-rule:nonzero;fill:rgb(0%,0%,0%);fill-opacity:1;" d="M 479.25 181.566406 C 479.25 181.941406 478.726562 182.316406 478.125 182.316406 C 476.625 182.316406 471.75 187.195312 471.75 188.695312 C 471.75 189.292969 471.449219 189.820312 471 189.820312 C 470.625 189.820312 470.25 190.796875 470.25 191.996094 C 470.25 193.269531 469.949219 194.472656 469.5 194.695312 C 469.050781 194.996094 468.75 199.046875 468.75 204.523438 L 468.75 213.828125 L 459.449219 213.828125 C 453.976562 213.828125 449.925781 214.128906 449.625 214.578125 C 449.398438 214.953125 448.5 215.328125 447.675781 215.328125 C 446.925781 215.328125 446.25 215.628906 446.25 216.078125 C 446.25 216.453125 445.726562 216.828125 445.125 216.828125 C 443.625 216.828125 437.25 223.207031 437.25 224.707031 C 437.25 225.308594 436.949219 225.832031 436.5 225.832031 C 436.125 225.832031 435.75 227.332031 435.75 229.132812 C 435.75 231.011719 435.449219 232.734375 435 232.960938 C 434.625 233.1875 434.25 236.410156 434.25 240.164062 L 434.25 246.839844 L 425.324219 246.839844 C 420.148438 246.839844 416.175781 247.140625 415.875 247.589844 C 415.648438 247.964844 413.925781 248.339844 412.050781 248.339844 C 410.25 248.339844 408.75 248.640625 408.75 248.941406 C 408.75 249.316406 407.851562 250.066406 406.726562 250.667969 C 404.101562 252.015625 401.925781 254.191406 400.574219 256.746094 C 399.976562 257.945312 399.226562 258.84375 398.851562 258.84375 C 398.550781 258.84375 398.25 259.746094 398.25 260.796875 C 398.25 264.847656 398.324219 264.847656 369.75 264.847656 C 341.476562 264.847656 342.523438 264.695312 340.648438 268.824219 C 339.601562 271.300781 339.523438 271.824219 340.425781 271.300781 C 340.800781 271.074219 341.101562 271.675781 341.101562 272.726562 C 341.101562 276.777344 341.324219 276.851562 367.425781 276.851562 C 382.574219 276.851562 391.574219 277.152344 391.875 277.601562 C 392.101562 277.976562 393.300781 278.351562 394.574219 278.351562 C 395.773438 278.351562 396.75 277.976562 396.75 277.601562 C 396.75 277.078125 411.148438 276.851562 438.449219 276.851562 C 479.476562 276.851562 480.148438 276.851562 480.523438 275.351562 C 480.75 274.527344 481.199219 273.851562 481.574219 273.851562 C 481.949219 273.851562 482.25 273.175781 482.25 272.425781 C 482.25 271.601562 482.625 270.699219 483 270.472656 C 483.449219 270.25 483.75 269.199219 483.75 268.148438 C 483.75 267.171875 484.125 266.347656 484.5 266.347656 C 484.949219 266.347656 485.25 265.523438 485.25 264.546875 C 485.25 263.496094 485.625 262.445312 486 262.222656 C 486.449219 261.996094 486.75 260.421875 486.75 258.769531 C 486.75 257.195312 487.125 255.84375 487.5 255.84375 C 487.949219 255.84375 488.25 254.867188 488.25 253.667969 C 488.25 252.394531 488.625 251.191406 489 250.96875 C 489.449219 250.742188 489.75 248.714844 489.75 246.464844 C 489.75 244.214844 490.125 242.1875 490.5 241.964844 C 490.949219 241.738281 491.25 239.039062 491.25 236.035156 C 491.25 233.109375 491.625 230.257812 492 229.882812 C 492.523438 229.359375 492.675781 222.980469 492.449219 211.128906 C 492.074219 192.21875 491.476562 183.816406 490.5 183.816406 C 490.199219 183.816406 489.75 183.140625 489.523438 182.316406 C 489.226562 181.042969 488.476562 180.816406 484.199219 180.816406 C 481.425781 180.816406 479.25 181.117188 479.25 181.566406 Z M 479.25 181.566406 "/>
<path style=" stroke:none;fill-rule:nonzero;fill:rgb(0%,0%,0%);fill-opacity:1;" d="M 392.625 280.527344 C 392.324219 281.054688 388.726562 281.351562 383.175781 281.351562 C 377.699219 281.351562 374.25 281.652344 374.25 282.105469 C 374.25 282.480469 373.574219 282.855469 372.75 282.855469 C 371.773438 282.855469 371.25 283.378906 371.25 284.28125 C 371.25 285.105469 370.949219 286.003906 370.5 286.230469 C 370.125 286.457031 369.75 287.65625 369.75 288.855469 C 369.75 290.054688 370.125 291.257812 370.5 291.480469 C 370.949219 291.707031 371.25 292.605469 371.25 293.433594 C 371.25 294.332031 371.773438 294.859375 372.75 294.859375 C 373.574219 294.859375 374.25 295.160156 374.25 295.609375 C 374.25 295.984375 374.851562 296.359375 375.601562 296.359375 C 376.351562 296.359375 377.324219 296.734375 377.699219 297.109375 C 378.523438 297.933594 445.050781 297.632812 456.601562 296.734375 C 461.023438 296.359375 463.125 296.507812 463.949219 297.183594 C 464.773438 297.859375 465.300781 297.859375 465.898438 297.257812 C 466.425781 296.734375 467.476562 296.359375 468.300781 296.359375 C 470.25 296.359375 474.75 291.40625 474.75 289.15625 C 474.75 288.253906 475.125 287.207031 475.5 286.980469 C 475.949219 286.753906 476.25 285.78125 476.25 284.953125 C 476.25 281.804688 474.523438 281.429688 459.300781 281.351562 C 449.550781 281.351562 444.75 281.054688 444.148438 280.453125 C 443.550781 279.851562 443.023438 279.851562 442.273438 280.527344 C 441 281.503906 396.523438 281.429688 394.425781 280.378906 C 393.675781 280.003906 392.925781 280.078125 392.625 280.527344 Z M 392.625 280.527344 "/>
<path style=" stroke:none;fill-rule:nonzero;fill:rgb(0%,0%,0%);fill-opacity:1;" d="M 60.375 439.660156 C 60.148438 440.035156 58.875 440.410156 57.675781 440.410156 C 53.175781 440.410156 53.25 439.660156 53.25 472.972656 C 53.25 492.40625 53.550781 503.511719 54 503.808594 C 55.5 504.710938 54.75 506.4375 52.875 506.4375 C 51.601562 506.4375 50.699219 507.109375 49.875 508.6875 C 49.199219 509.960938 48.898438 511.3125 49.125 511.6875 C 49.351562 512.136719 52.726562 512.4375 56.550781 512.4375 C 60.976562 512.4375 64.351562 512.8125 65.699219 513.488281 C 67.125 514.164062 69 514.390625 71.25 514.011719 C 73.949219 513.636719 74.773438 513.113281 75.601562 511.539062 C 76.726562 509.210938 75.75 506.4375 73.875 506.4375 C 72.898438 506.4375 72.75 502.007812 72.75 474.472656 C 72.75 449.941406 72.523438 442.363281 71.851562 441.613281 C 70.949219 440.785156 64.125 438.910156 61.875 438.910156 C 61.273438 438.910156 60.601562 439.210938 60.375 439.660156 Z M 60.375 439.660156 "/>
<path style=" stroke:none;fill-rule:nonzero;fill:rgb(0%,0%,0%);fill-opacity:1;" d="M 97.125 439.660156 C 96.898438 440.035156 95.699219 440.410156 94.425781 440.410156 C 92.773438 440.410156 92.25 440.785156 92.25 441.835938 C 92.25 442.664062 91.949219 443.5625 91.5 443.789062 C 91.125 444.011719 90.75 445.738281 90.75 447.539062 C 90.75 449.339844 91.125 451.066406 91.5 451.289062 C 91.949219 451.515625 92.25 452.714844 92.25 453.839844 C 92.25 457.21875 94.800781 458.417969 102.226562 458.417969 C 106.726562 458.417969 108.824219 458.71875 109.425781 459.46875 C 110.023438 460.21875 110.25 466.894531 110.25 482.503906 C 110.175781 497.65625 110.398438 504.636719 110.925781 504.785156 C 112.800781 505.386719 111.523438 506.4375 108.824219 506.4375 C 106.5 506.4375 105.824219 506.734375 105.523438 508.011719 C 105 509.886719 106.199219 513.414062 107.175781 512.886719 C 107.550781 512.664062 107.773438 513.039062 107.699219 513.789062 C 107.625 514.765625 108.300781 515.140625 110.550781 515.289062 C 112.125 515.4375 113.773438 515.214844 114.226562 514.765625 C 114.75 514.238281 118.273438 513.9375 122.851562 513.9375 C 131.699219 513.9375 132.976562 513.339844 132.601562 509.285156 C 132.449219 507.1875 132 506.734375 130.351562 506.585938 C 128.398438 506.359375 127.273438 504.933594 129 504.933594 C 129.449219 504.933594 129.75 496.683594 129.75 481.675781 L 129.75 458.417969 L 137.699219 458.417969 C 144.976562 458.417969 145.648438 458.269531 146.023438 456.917969 C 146.25 456.09375 146.699219 455.417969 147.074219 455.417969 C 147.449219 455.417969 147.75 452.492188 147.75 448.964844 C 147.75 442.4375 147 440.410156 144.449219 440.410156 C 143.851562 440.410156 143.101562 440.035156 142.875 439.660156 C 142.574219 439.210938 134.101562 438.910156 120 438.910156 C 105.898438 438.910156 97.425781 439.210938 97.125 439.660156 Z M 97.125 439.660156 "/>
<path style=" stroke:none;fill-rule:nonzero;fill:rgb(0%,0%,0%);fill-opacity:1;" d="M 169.351562 440.488281 L 167.25 442.0625 L 167.25 473.5 C 167.25 493.980469 167.476562 504.933594 168 504.933594 C 168.449219 504.933594 168.75 505.234375 168.75 505.609375 C 168.75 506.0625 167.324219 506.4375 165.601562 506.585938 C 162.75 506.8125 162.375 507.035156 161.773438 509.210938 C 161.023438 511.761719 162.300781 513.9375 164.550781 513.9375 C 165.148438 513.9375 165.898438 514.238281 166.125 514.6875 C 166.351562 515.0625 167.398438 515.4375 168.375 515.4375 C 169.351562 515.4375 170.398438 515.0625 170.625 514.6875 C 170.851562 514.238281 174.601562 513.9375 179.101562 513.9375 C 187.726562 513.863281 189.75 513.1875 189.75 510.261719 C 189.75 508.011719 188.023438 506.4375 185.699219 506.4375 C 184.648438 506.4375 183.75 506.0625 183.75 505.6875 C 183.75 505.234375 184.125 504.933594 184.5 504.933594 C 185.023438 504.933594 185.25 494.054688 185.25 473.722656 C 185.25 441.011719 185.175781 440.410156 181.949219 440.410156 C 181.351562 440.410156 180.601562 440.035156 180.375 439.660156 C 179.773438 438.6875 176.773438 438.6875 175.726562 439.738281 C 175.125 440.335938 174.75 440.335938 174.449219 439.738281 C 173.625 438.460938 171.601562 438.761719 169.351562 440.488281 Z M 169.351562 440.488281 "/>
<path style=" stroke:none;fill-rule:nonzero;fill:rgb(0%,0%,0%);fill-opacity:1;" d="M 217.949219 439.585938 C 217.648438 440.035156 216.074219 440.410156 214.425781 440.410156 C 209.023438 440.410156 209.25 438.984375 209.25 473.722656 C 209.25 494.054688 209.476562 504.933594 210 504.933594 C 210.449219 504.933594 210.75 505.234375 210.75 505.6875 C 210.75 506.0625 209.550781 506.4375 208.050781 506.4375 C 206.023438 506.4375 205.273438 506.8125 204.976562 507.9375 C 204.75 508.761719 204.300781 509.4375 203.925781 509.4375 C 203.550781 509.4375 203.25 510.113281 203.25 510.9375 C 203.25 511.761719 203.773438 512.4375 204.375 512.4375 C 205.050781 512.4375 206.25 513.113281 207.148438 513.9375 C 208.574219 515.289062 209.851562 515.4375 218.324219 515.4375 C 223.949219 515.4375 228.074219 515.140625 228.375 514.6875 C 228.601562 514.238281 229.351562 513.9375 229.949219 513.9375 C 231.601562 513.9375 233.25 512.0625 233.25 510.113281 C 233.25 508.160156 231.300781 506.511719 228.976562 506.4375 C 228 506.4375 227.25 506.0625 227.25 505.6875 C 227.25 505.234375 227.625 504.933594 228 504.933594 C 228.449219 504.933594 228.75 499.910156 228.75 491.429688 C 228.75 484.003906 228.976562 477.925781 229.199219 477.925781 C 230.023438 477.925781 231.75 480.101562 231.75 481.226562 C 231.75 481.902344 232.125 482.425781 232.5 482.425781 C 232.949219 482.425781 233.25 482.878906 233.25 483.328125 C 233.25 483.851562 234.300781 485.503906 235.5 486.929688 C 236.699219 488.355469 237.75 489.929688 237.75 490.453125 C 237.75 490.90625 238.125 491.429688 238.648438 491.582031 C 239.101562 491.730469 239.324219 492.332031 239.101562 492.929688 C 238.949219 493.53125 237.898438 492.554688 236.550781 490.453125 C 234.824219 487.679688 233.925781 486.929688 232.351562 486.929688 C 230.398438 486.929688 230.25 487.152344 230.25 489.929688 C 230.25 492.40625 230.476562 492.929688 231.75 492.929688 C 232.574219 492.929688 233.25 493.457031 233.25 494.054688 C 233.25 495.183594 235.800781 500.207031 237.074219 501.558594 C 237.449219 501.933594 237.75 502.835938 237.75 503.585938 C 237.75 504.335938 237.976562 504.933594 238.351562 504.933594 C 239.023438 504.933594 240.75 508.613281 240.75 510.113281 C 240.824219 512.136719 242.699219 513.9375 244.726562 513.9375 C 245.773438 513.9375 246.898438 514.3125 247.199219 514.765625 C 247.5 515.289062 249.148438 515.4375 251.925781 515.140625 C 254.25 514.914062 258.675781 514.464844 261.75 514.238281 C 268.726562 513.714844 270.75 512.8125 270.75 510.1875 C 270.75 507.636719 267.675781 505.6875 265.949219 507.109375 C 265.351562 507.636719 264.675781 507.710938 264.449219 507.335938 C 264.226562 506.886719 264.523438 506.210938 265.125 505.6875 C 265.726562 505.160156 266.25 504.109375 266.25 503.359375 C 266.25 502.609375 266.625 501.785156 267 501.558594 C 267.898438 501.035156 268.050781 486.179688 267.226562 486.179688 C 266.851562 486.179688 266.625 484.378906 266.625 482.125 C 266.625 479.875 266.851562 478.226562 267.226562 478.449219 C 267.523438 478.601562 267.75 475.675781 267.75 472 C 267.75 468.246094 267.523438 465.171875 267.226562 465.171875 C 266.851562 465.171875 266.550781 460.144531 266.550781 453.917969 C 266.398438 441.6875 266.101562 440.710938 262.050781 440.335938 C 260.851562 440.261719 257.476562 440.261719 254.476562 440.261719 C 249.226562 440.410156 249.074219 440.488281 247.875 442.8125 C 246.976562 444.613281 246.675781 447.015625 246.75 451.289062 C 247.050781 462.917969 246.75 468.921875 246 468.921875 C 245.625 468.921875 245.25 468.246094 245.25 467.421875 C 245.25 466.597656 244.949219 465.921875 244.574219 465.921875 C 244.199219 465.921875 243.75 465.320312 243.523438 464.570312 C 243.074219 463.296875 240.75 459.167969 240 458.417969 C 239.25 457.667969 236.925781 453.542969 236.476562 452.191406 C 236.25 451.515625 235.800781 450.914062 235.425781 450.914062 C 235.050781 450.914062 234.75 450.316406 234.75 449.566406 C 234.75 448.816406 234.074219 447.765625 233.25 447.164062 C 232.425781 446.5625 231.75 445.664062 231.75 445.0625 C 231.75 443.5625 228.523438 440.710938 226.125 440.113281 C 221.625 438.984375 218.398438 438.761719 217.949219 439.585938 Z M 217.949219 439.585938 "/>
<path style=" stroke:none;fill-rule:nonzero;fill:rgb(0%,0%,0%);fill-opacity:1;" d="M 379.875 439.660156 C 381 440.113281 380.625 440.261719 378.375 440.1875 C 376.726562 440.113281 372.449219 440.1875 368.851562 440.261719 L 362.25 440.410156 L 362.25 443.335938 C 362.25 444.988281 361.949219 446.5625 361.5 446.789062 C 361.125 447.015625 360.75 448.589844 360.75 450.164062 C 360.75 451.742188 361.125 453.316406 361.5 453.542969 C 361.949219 453.765625 362.25 454.367188 362.25 454.742188 C 362.25 455.191406 361.949219 455.265625 361.5 455.042969 C 361.050781 454.742188 360.75 455.792969 360.75 457.667969 C 360.75 459.84375 360.976562 460.59375 361.648438 460.21875 C 362.25 459.84375 362.324219 460.070312 361.875 461.121094 C 361.5 461.871094 361.125 471.324219 360.898438 482.050781 C 360.675781 498.78125 360.824219 501.859375 361.800781 503.808594 L 363 506.0625 L 360.601562 506.285156 C 356.023438 506.8125 354.75 510.636719 358.199219 513.5625 C 360 515.140625 360.898438 515.289062 371.175781 515.363281 C 381.226562 515.4375 382.351562 515.289062 383.550781 514.011719 C 384.449219 513.039062 384.75 511.613281 384.601562 509.660156 C 384.375 506.960938 384.226562 506.8125 381.601562 506.585938 C 378.300781 506.285156 378.226562 506.136719 380.25 504.035156 C 381.824219 502.308594 382.273438 499.308594 381 498.558594 C 380.023438 497.957031 380.023438 488.65625 381 488.054688 C 381.449219 487.753906 381.601562 486.855469 381.300781 485.953125 C 380.851562 484.527344 380.925781 484.453125 382.050781 485.351562 C 382.726562 485.878906 383.25 486.855469 383.25 487.378906 C 383.25 487.980469 383.550781 488.429688 383.925781 488.429688 C 384.300781 488.429688 384.75 489.03125 385.050781 489.703125 C 385.273438 490.453125 385.648438 491.429688 385.875 491.804688 C 386.101562 492.253906 385.5 492.628906 384.601562 492.707031 C 383.25 492.855469 383.101562 492.707031 384 492.105469 C 384.898438 491.503906 384.824219 491.429688 383.625 491.582031 C 381.375 491.957031 381.074219 497.359375 383.25 499.308594 C 384.074219 500.058594 384.75 501.035156 384.75 501.558594 C 384.75 502.835938 386.550781 506.4375 387.226562 506.4375 C 387.523438 506.4375 387.75 507.1875 387.75 508.160156 C 387.75 509.0625 388.800781 511.085938 390.074219 512.664062 L 392.324219 515.4375 L 403.726562 515.4375 C 413.851562 515.4375 415.351562 515.214844 417 513.9375 C 418.050781 513.113281 419.324219 512.4375 419.851562 512.4375 C 422.175781 512.4375 419.851562 507.9375 417.449219 507.9375 C 416.773438 507.9375 416.25 507.5625 416.25 507.1875 C 416.25 506.734375 415.273438 506.4375 414 506.4375 C 411.824219 506.4375 411.75 506.359375 411.75 502.460938 C 411.75 499.757812 411.300781 497.957031 410.25 496.683594 C 409.425781 495.632812 408.75 494.355469 408.75 493.832031 C 408.75 493.382812 408.449219 492.929688 408 492.929688 C 407.625 492.929688 407.25 492.253906 407.25 491.429688 C 407.25 490.605469 406.949219 489.929688 406.5 489.929688 C 406.125 489.929688 405.75 489.253906 405.75 488.429688 C 405.75 487.605469 405.449219 486.929688 405 486.929688 C 404.625 486.929688 404.25 486.554688 404.25 486.179688 C 404.25 485.726562 405.449219 485.429688 406.875 485.429688 C 409.726562 485.429688 413.25 482.726562 413.25 480.550781 C 413.25 479.949219 413.625 479.425781 414 479.425781 C 414.449219 479.425781 414.75 478.75 414.75 477.925781 C 414.75 477.101562 415.125 476.425781 415.5 476.425781 C 415.949219 476.425781 416.25 475.074219 416.25 473.421875 C 416.25 470.949219 416.023438 470.421875 414.824219 470.421875 C 414 470.421875 413.25 470.871094 413.023438 471.324219 C 412.875 471.921875 412.425781 472 412.050781 471.625 C 411.675781 471.246094 411.75 470.796875 412.351562 470.648438 C 413.476562 470.199219 413.699219 453.917969 412.5 453.917969 C 412.125 453.917969 411.75 453.242188 411.75 452.417969 C 411.75 451.589844 411.449219 450.914062 411 450.914062 C 410.625 450.914062 410.25 450.390625 410.25 449.714844 C 410.25 448.289062 405.148438 443.414062 403.726562 443.414062 C 403.199219 443.414062 402.75 443.039062 402.75 442.664062 C 402.75 442.210938 402.074219 441.914062 401.25 441.914062 C 400.425781 441.914062 399.75 441.535156 399.75 441.160156 C 399.75 440.710938 397.949219 440.410156 395.699219 440.410156 C 393.449219 440.410156 391.351562 440.035156 391.125 439.660156 C 390.898438 439.210938 387.898438 438.910156 384.523438 438.984375 C 380.476562 438.984375 378.898438 439.210938 379.875 439.660156 Z M 379.875 439.660156 "/>
<path style=" stroke:none;fill-rule:nonzero;fill:rgb(0%,0%,0%);fill-opacity:1;" d="M 437.625 439.660156 C 437.398438 440.035156 436.5 440.410156 435.675781 440.410156 C 434.773438 440.410156 434.25 440.9375 434.25 441.761719 C 434.25 442.511719 433.875 443.488281 433.5 443.863281 C 432.601562 444.761719 432.976562 479.800781 433.875 485.203125 C 434.398438 488.578125 433.5 489.554688 432.074219 487.078125 C 431.398438 485.953125 431.175781 485.953125 430.5 486.929688 C 430.050781 487.527344 429.898438 488.878906 430.125 489.929688 C 430.425781 490.980469 430.800781 493.007812 430.949219 494.429688 C 431.476562 497.882812 433.199219 501.558594 435.226562 503.660156 C 436.199219 504.558594 437.175781 505.910156 437.476562 506.660156 C 437.699219 507.335938 438.375 507.9375 438.898438 507.9375 C 439.425781 507.9375 440.324219 508.910156 440.851562 510.1875 C 441.449219 511.539062 442.425781 512.4375 443.25 512.4375 C 444 512.4375 444.898438 512.738281 445.125 513.1875 C 445.351562 513.5625 446.925781 513.9375 448.5 513.9375 C 450.074219 513.9375 451.648438 514.238281 451.875 514.6875 C 452.175781 515.140625 456.523438 515.4375 462.375 515.4375 C 468.226562 515.4375 472.574219 515.140625 472.875 514.6875 C 473.101562 514.238281 474.449219 513.9375 475.726562 513.9375 C 477.074219 513.9375 478.949219 513.261719 480 512.4375 C 481.050781 511.613281 482.324219 510.9375 482.851562 510.9375 C 483.300781 510.9375 483.75 510.5625 483.75 510.113281 C 483.75 509.585938 484.5 508.460938 485.476562 507.5625 C 488.625 504.484375 491.25 500.433594 491.25 498.558594 C 491.25 497.957031 491.625 497.433594 492 497.433594 C 493.050781 497.433594 492.976562 492.40625 491.925781 491.730469 C 491.476562 491.503906 490.726562 491.65625 490.273438 492.105469 C 489.824219 492.554688 489.074219 492.929688 488.699219 492.929688 C 488.25 492.929688 488.324219 492.554688 488.851562 492.03125 C 489.375 491.503906 489.75 490.15625 489.75 489.03125 C 489.75 487.902344 490.125 486.929688 490.5 486.929688 C 490.949219 486.929688 491.25 479.050781 491.25 464.71875 L 491.25 442.4375 L 489.226562 440.710938 C 487.425781 439.136719 486.300781 438.910156 481.5 438.910156 C 476.699219 438.910156 475.574219 439.136719 473.851562 440.710938 L 471.75 442.4375 L 471.75 461.871094 C 471.75 480.027344 471.601562 481.453125 470.25 483.175781 C 469.425781 484.226562 468.75 485.429688 468.75 485.804688 C 468.75 486.929688 464.175781 488.730469 461.476562 488.65625 C 459.824219 488.578125 458.324219 487.828125 456.449219 485.878906 L 453.75 483.253906 L 453.75 463.296875 C 453.75 450.539062 453.449219 443.414062 453 443.414062 C 452.625 443.414062 452.25 442.738281 452.25 441.914062 C 452.25 440.9375 451.726562 440.410156 450.824219 440.410156 C 450 440.410156 449.101562 440.035156 448.875 439.660156 C 448.648438 439.210938 446.101562 438.910156 443.25 438.910156 C 440.398438 438.910156 437.851562 439.210938 437.625 439.660156 Z M 437.625 439.660156 "/>
<path style=" stroke:none;fill-rule:nonzero;fill:rgb(0%,0%,0%);fill-opacity:1;" d="M 518.25 439.660156 C 518.25 440.035156 517.726562 440.410156 517.050781 440.410156 C 513.824219 440.410156 513.75 440.9375 513.75 473.722656 C 513.75 494.054688 513.976562 504.933594 514.5 504.933594 C 514.949219 504.933594 515.25 505.234375 515.25 505.6875 C 515.25 506.0625 514.273438 506.4375 513.148438 506.4375 C 510.601562 506.4375 509.25 507.636719 509.25 510.039062 C 509.25 512.363281 510.898438 513.9375 513.300781 513.9375 C 514.425781 513.9375 515.925781 514.3125 516.75 514.839844 C 517.800781 515.515625 518.550781 515.515625 519.898438 514.914062 C 522.449219 513.636719 525.675781 513.261719 525.523438 514.238281 C 525.449219 514.765625 526.949219 515.140625 529.351562 515.289062 C 532.351562 515.4375 533.773438 515.140625 535.425781 514.011719 C 536.925781 512.886719 537.75 512.738281 538.351562 513.339844 C 538.800781 513.789062 541.726562 514.089844 545.175781 514.089844 C 548.699219 514.011719 551.25 514.3125 551.25 514.6875 C 551.25 515.664062 561.523438 515.664062 562.125 514.6875 C 562.800781 513.636719 568.199219 513.714844 569.925781 514.839844 C 571.050781 515.515625 571.800781 515.515625 573.300781 514.839844 C 574.5 514.3125 575.25 514.238281 575.25 514.6875 C 575.25 515.140625 578.101562 515.4375 582 515.4375 C 585.976562 515.4375 588.75 515.140625 588.75 514.6875 C 588.75 514.238281 589.574219 513.9375 590.476562 513.9375 C 591.449219 513.9375 592.875 513.261719 593.625 512.4375 C 594.75 511.164062 594.824219 510.789062 593.925781 509.660156 C 591.75 506.886719 591.074219 506.4375 589.199219 506.4375 C 588.148438 506.4375 587.25 506.0625 587.25 505.6875 C 587.25 505.234375 587.625 504.933594 588 504.933594 C 588.523438 504.933594 588.75 494.054688 588.75 473.722656 L 588.75 442.4375 L 586.726562 440.710938 C 584.925781 439.136719 583.875 438.910156 578.851562 438.910156 C 575.699219 438.910156 572.851562 439.210938 572.625 439.660156 C 572.398438 440.035156 571.648438 440.410156 571.050781 440.410156 C 569.550781 440.410156 567.75 442.210938 567.75 443.710938 C 567.75 444.386719 567.449219 444.914062 567 444.914062 C 566.625 444.914062 566.25 445.589844 566.25 446.414062 C 566.25 447.238281 565.949219 447.914062 565.5 447.914062 C 565.125 447.914062 564.75 448.890625 564.75 450.164062 C 564.75 451.367188 564.449219 452.417969 564 452.417969 C 563.625 452.417969 563.25 453.089844 563.25 453.917969 C 563.25 454.742188 562.949219 455.417969 562.5 455.417969 C 562.125 455.417969 561.75 456.09375 561.75 456.917969 C 561.75 457.742188 561.449219 458.417969 561 458.417969 C 560.625 458.417969 560.25 459.09375 560.25 459.84375 C 560.25 460.667969 559.949219 461.570312 559.5 461.792969 C 559.125 462.019531 558.75 463.070312 558.75 464.121094 C 558.75 465.09375 558.449219 465.921875 558 465.921875 C 557.625 465.921875 557.25 466.597656 557.25 467.421875 C 557.25 468.246094 556.949219 468.921875 556.5 468.921875 C 556.125 468.921875 555.75 469.597656 555.75 470.421875 C 555.75 471.246094 555.449219 471.921875 555 471.921875 C 554.625 471.921875 554.25 472.597656 554.25 473.347656 C 554.25 474.175781 553.949219 475.074219 553.5 475.300781 C 553.125 475.523438 552.75 476.574219 552.75 477.625 C 552.75 478.601562 552.523438 479.425781 552.300781 479.425781 C 551.476562 479.425781 549.75 477.25 549.75 476.125 C 549.75 475.449219 549.449219 474.925781 549 474.925781 C 548.625 474.925781 548.25 474.097656 548.25 473.125 C 548.25 472.074219 547.949219 471.023438 547.5 470.796875 C 547.125 470.574219 546.75 469.671875 546.75 468.847656 C 546.75 468.097656 546.449219 467.421875 546 467.421875 C 545.625 467.421875 545.25 466.746094 545.25 465.921875 C 545.25 465.09375 544.949219 464.421875 544.5 464.421875 C 544.125 464.421875 543.75 463.746094 543.75 462.917969 C 543.75 462.09375 543.449219 461.417969 543 461.417969 C 542.625 461.417969 542.25 460.742188 542.25 459.917969 C 542.25 459.09375 541.949219 458.417969 541.5 458.417969 C 541.125 458.417969 540.75 457.367188 540.75 456.167969 C 540.75 454.890625 540.449219 453.917969 540 453.917969 C 539.625 453.917969 539.25 453.242188 539.25 452.417969 C 539.25 451.589844 538.949219 450.914062 538.5 450.914062 C 538.125 450.914062 537.75 450.238281 537.75 449.414062 C 537.75 448.589844 537.449219 447.914062 537 447.914062 C 536.625 447.914062 536.25 447.164062 536.25 446.1875 C 536.25 444.164062 533.175781 440.410156 531.523438 440.410156 C 530.851562 440.410156 530.101562 440.035156 529.875 439.660156 C 529.648438 439.210938 526.875 438.910156 523.800781 438.910156 C 520.574219 438.910156 518.25 439.210938 518.25 439.660156 Z M 518.25 439.660156 "/>
<path style=" stroke:none;fill-rule:nonzero;fill:rgb(0%,0%,0%);fill-opacity:1;" d="M 302.324219 440.261719 C 296.25 440.410156 293.550781 440.785156 292.800781 441.535156 C 291.898438 442.4375 291.75 447.765625 291.898438 474.550781 L 292.125 506.4375 L 290.175781 506.4375 C 289.125 506.4375 287.699219 507.035156 287.023438 507.785156 C 285.601562 509.363281 285.300781 510.5625 286.574219 509.8125 C 287.023438 509.511719 287.324219 509.738281 287.175781 510.261719 C 286.726562 514.011719 286.800781 514.089844 294.375 513.789062 C 298.273438 513.714844 301.199219 513.714844 300.75 513.789062 C 300.300781 513.9375 300.148438 514.390625 300.449219 514.765625 C 300.976562 515.589844 306.523438 515.664062 307.050781 514.839844 C 307.5 514.089844 322.425781 514.238281 329.023438 515.0625 C 331.574219 515.363281 334.273438 515.363281 335.023438 515.0625 C 335.773438 514.6875 337.726562 514.3125 339.375 514.164062 C 341.023438 514.089844 342.523438 513.5625 342.601562 513.1875 C 342.75 512.738281 343.351562 512.4375 343.875 512.4375 C 345.75 512.4375 345.898438 510.9375 344.25 508.761719 C 343.125 507.109375 342 506.4375 340.125 506.285156 L 337.5 506.0625 L 338.625 503.886719 C 339.976562 501.257812 340.125 493.230469 338.851562 490.453125 L 337.875 488.429688 L 324.75 488.429688 C 310.726562 488.429688 309.75 488.203125 309.75 484.828125 C 309.75 481.375 311.101562 480.925781 321.75 480.925781 C 329.324219 480.925781 331.875 480.703125 332.699219 479.875 C 334.199219 478.375 334.199219 465.472656 332.699219 463.96875 C 331.875 463.144531 329.175781 462.917969 320.699219 462.917969 L 309.75 462.917969 L 309.75 458.417969 L 336.226562 458.417969 L 337.949219 456.316406 C 339.523438 454.59375 339.75 453.542969 339.75 448.664062 C 339.675781 445.363281 339.300781 442.511719 338.773438 441.835938 C 338.023438 440.785156 335.699219 440.5625 324.375 440.335938 C 316.949219 440.1875 307.050781 440.113281 302.324219 440.261719 Z M 302.324219 440.261719 "/>
</g>
</svg>
